<svg xmlns="http://www.w3.org/2000/svg" viewBox="0 0 1416 742" width="1416" height="742" role="img" aria-label="Security">
  <defs>
    <linearGradient id="bg" x1="0" y1="1" x2="1" y2="0">
      <stop offset="0%" stop-color="#170a02"/>
      <stop offset="48%" stop-color="#3d1c05"/>
      <stop offset="100%" stop-color="#24100a"/>
    </linearGradient>
    <radialGradient id="halo" cx="70%" cy="30%" r="55%">
      <stop offset="0%" stop-color="#f0b429" stop-opacity="0.20"/>
      <stop offset="55%" stop-color="#f0b429" stop-opacity="0.05"/>
      <stop offset="100%" stop-color="#f0b429" stop-opacity="0"/>
    </radialGradient>
    <linearGradient id="shade" x1="0" y1="0" x2="1" y2="1">
      <stop offset="0%" stop-color="#000" stop-opacity="0.55"/>
      <stop offset="45%" stop-color="#000" stop-opacity="0.12"/>
      <stop offset="100%" stop-color="#000" stop-opacity="0.40"/>
    </linearGradient>
    <radialGradient id="vig" cx="50%" cy="48%" r="72%">
      <stop offset="45%" stop-color="#000" stop-opacity="0"/>
      <stop offset="100%" stop-color="#000" stop-opacity="0.60"/>
    </radialGradient>
    <filter id="soft" x="-25%" y="-25%" width="150%" height="150%">
      <feGaussianBlur stdDeviation="6"/>
    </filter>
    <filter id="softer" x="-30%" y="-30%" width="160%" height="160%">
      <feGaussianBlur stdDeviation="20"/>
    </filter>
    <filter id="grain" x="0" y="0" width="100%" height="100%">
      <feTurbulence type="fractalNoise" baseFrequency="0.85" numOctaves="3" seed="13"/>
      <feColorMatrix type="saturate" values="0"/>
    </filter>
  </defs>

  <rect width="1416" height="742" fill="#170a02"/>
  <rect width="1416" height="742" fill="url(#bg)"/>
  <rect width="1416" height="742" fill="url(#halo)"/>

  <g fill="#f0b429">
      <rect x="952" y="188" width="85" height="6" rx="1.5" opacity="0.16"/>
      <rect x="1060" y="188" width="37" height="6" rx="1.5" opacity="0.08"/>
      <rect x="1121" y="188" width="21" height="6" rx="1.5" opacity="0.09"/>
      <rect x="1162" y="188" width="119" height="6" rx="1.5" opacity="0.18"/>
      <rect x="1292" y="188" width="109" height="6" rx="1.5" opacity="0.10"/>
      <rect x="1417" y="188" width="32" height="6" rx="1.5" opacity="0.18"/>
      <rect x="980" y="205" width="86" height="6" rx="1.5" opacity="0.19"/>
      <rect x="1086" y="205" width="53" height="6" rx="1.5" opacity="0.15"/>
      <rect x="1159" y="205" width="64" height="6" rx="1.5" opacity="0.15"/>
      <rect x="1249" y="205" width="92" height="6" rx="1.5" opacity="0.14"/>
      <rect x="966" y="222" width="65" height="6" rx="1.5" opacity="0.15"/>
      <rect x="952" y="239" width="76" height="6" rx="1.5" opacity="0.19"/>
      <rect x="980" y="256" width="58" height="6" rx="1.5" opacity="0.16"/>
      <rect x="980" y="273" width="83" height="6" rx="1.5" opacity="0.09"/>
      <rect x="1079" y="273" width="108" height="6" rx="1.5" opacity="0.17"/>
      <rect x="1200" y="273" width="56" height="6" rx="1.5" opacity="0.16"/>
      <rect x="1268" y="273" width="80" height="6" rx="1.5" opacity="0.16"/>
      <rect x="1360" y="273" width="77" height="6" rx="1.5" opacity="0.15"/>
      <rect x="966" y="290" width="38" height="6" rx="1.5" opacity="0.17"/>
      <rect x="1022" y="290" width="35" height="6" rx="1.5" opacity="0.13"/>
      <rect x="1076" y="290" width="89" height="6" rx="1.5" opacity="0.20"/>
      <rect x="1188" y="290" width="72" height="6" rx="1.5" opacity="0.09"/>
      <rect x="1274" y="290" width="110" height="6" rx="1.5" opacity="0.14"/>
      <rect x="1406" y="290" width="71" height="6" rx="1.5" opacity="0.18"/>
      <rect x="980" y="307" width="41" height="6" rx="1.5" opacity="0.10"/>
      <rect x="1043" y="307" width="91" height="6" rx="1.5" opacity="0.09"/>
      <rect x="1146" y="307" width="102" height="6" rx="1.5" opacity="0.10"/>
      <rect x="1264" y="307" width="97" height="6" rx="1.5" opacity="0.15"/>
      <rect x="1377" y="307" width="61" height="6" rx="1.5" opacity="0.11"/>
      <rect x="966" y="341" width="37" height="6" rx="1.5" opacity="0.13"/>
      <rect x="1022" y="341" width="48" height="6" rx="1.5" opacity="0.13"/>
      <rect x="1081" y="341" width="29" height="6" rx="1.5" opacity="0.18"/>
      <rect x="1123" y="341" width="58" height="6" rx="1.5" opacity="0.07"/>
      <rect x="1192" y="341" width="63" height="6" rx="1.5" opacity="0.18"/>
      <rect x="952" y="358" width="117" height="6" rx="1.5" opacity="0.08"/>
      <rect x="1081" y="358" width="93" height="6" rx="1.5" opacity="0.19"/>
      <rect x="1198" y="358" width="88" height="6" rx="1.5" opacity="0.08"/>
      <rect x="952" y="375" width="23" height="6" rx="1.5" opacity="0.10"/>
      <rect x="998" y="375" width="98" height="6" rx="1.5" opacity="0.17"/>
      <rect x="1108" y="375" width="24" height="6" rx="1.5" opacity="0.14"/>
      <rect x="1142" y="375" width="114" height="6" rx="1.5" opacity="0.17"/>
      <rect x="1271" y="375" width="33" height="6" rx="1.5" opacity="0.14"/>
      <rect x="1318" y="375" width="113" height="6" rx="1.5" opacity="0.09"/>
      <rect x="952" y="392" width="120" height="6" rx="1.5" opacity="0.18"/>
      <rect x="1088" y="392" width="103" height="6" rx="1.5" opacity="0.16"/>
      <rect x="1205" y="392" width="29" height="6" rx="1.5" opacity="0.11"/>
      <rect x="1260" y="392" width="45" height="6" rx="1.5" opacity="0.17"/>
  </g>
  <g fill="#f0b429">
      <rect x="936" y="496" width="45" height="6" rx="1.5" opacity="0.11"/>
      <rect x="1005" y="496" width="76" height="6" rx="1.5" opacity="0.06"/>
      <rect x="1097" y="496" width="29" height="6" rx="1.5" opacity="0.08"/>
      <rect x="1151" y="496" width="39" height="6" rx="1.5" opacity="0.08"/>
      <rect x="1215" y="496" width="62" height="6" rx="1.5" opacity="0.11"/>
      <rect x="1299" y="496" width="26" height="6" rx="1.5" opacity="0.10"/>
      <rect x="950" y="513" width="49" height="6" rx="1.5" opacity="0.07"/>
      <rect x="1019" y="513" width="45" height="6" rx="1.5" opacity="0.07"/>
      <rect x="1087" y="513" width="24" height="6" rx="1.5" opacity="0.12"/>
      <rect x="1131" y="513" width="89" height="6" rx="1.5" opacity="0.08"/>
      <rect x="1241" y="513" width="112" height="6" rx="1.5" opacity="0.07"/>
      <rect x="936" y="530" width="88" height="6" rx="1.5" opacity="0.14"/>
      <rect x="1043" y="530" width="30" height="6" rx="1.5" opacity="0.10"/>
      <rect x="1091" y="530" width="119" height="6" rx="1.5" opacity="0.13"/>
      <rect x="1221" y="530" width="18" height="6" rx="1.5" opacity="0.11"/>
      <rect x="1254" y="530" width="115" height="6" rx="1.5" opacity="0.10"/>
      <rect x="936" y="547" width="114" height="6" rx="1.5" opacity="0.10"/>
      <rect x="1059" y="547" width="29" height="6" rx="1.5" opacity="0.08"/>
      <rect x="1108" y="547" width="98" height="6" rx="1.5" opacity="0.11"/>
      <rect x="936" y="564" width="34" height="6" rx="1.5" opacity="0.13"/>
      <rect x="992" y="564" width="109" height="6" rx="1.5" opacity="0.13"/>
      <rect x="936" y="598" width="28" height="6" rx="1.5" opacity="0.06"/>
      <rect x="936" y="632" width="37" height="6" rx="1.5" opacity="0.11"/>
      <rect x="989" y="632" width="111" height="6" rx="1.5" opacity="0.08"/>
      <rect x="1115" y="632" width="87" height="6" rx="1.5" opacity="0.06"/>
      <rect x="1216" y="632" width="56" height="6" rx="1.5" opacity="0.14"/>
      <rect x="1288" y="632" width="65" height="6" rx="1.5" opacity="0.06"/>
      <rect x="936" y="649" width="112" height="6" rx="1.5" opacity="0.10"/>
      <rect x="1074" y="649" width="36" height="6" rx="1.5" opacity="0.08"/>
  </g>

  <g fill="none" stroke="#f0b429" filter="url(#soft)">
    <path d="M -60 726 C 380 664 706 472 1086 148 C 1216 36 1334 -22 1476 -62" stroke-width="2.4" opacity="0.50"/>
    <path d="M -60 796 C 340 734 664 562 1014 248 C 1164 116 1304 38 1476 8" stroke-width="1.8" opacity="0.30"/>
    <path d="M 250 806 C 520 704 762 562 1014 338 C 1184 190 1322 108 1476 68" stroke-width="1.2" opacity="0.18"/>
    <path d="M 690 800 C 840 690 960 560 1080 420 C 1200 280 1320 190 1476 140" stroke-width="1" opacity="0.13"/>
  </g>
  <path d="M -60 706 C 400 644 726 442 1106 108 C 1236 -2 1344 -42 1476 -82"
        fill="none" stroke="#f0b429" stroke-width="30" opacity="0.10" filter="url(#softer)"/>

  <rect width="1416" height="742" fill="url(#shade)"/>
  <rect width="1416" height="742" fill="url(#vig)"/>
  <rect width="1416" height="742" filter="url(#grain)" opacity="0.055"/>

  <text x="50%" y="50%" text-anchor="middle" dominant-baseline="central"
        font-family="Helvetica Neue, Helvetica, Arial, sans-serif"
        font-size="170" font-weight="400" letter-spacing="-3" fill="#ffffff">Security</text>
</svg>
