<svg xmlns="http://www.w3.org/2000/svg" viewBox="0 0 1416 742" width="1416" height="742" role="img" aria-label="Corpus">
  <defs>
    <linearGradient id="bg" x1="0" y1="1" x2="1" y2="0">
      <stop offset="0%" stop-color="#01151a"/>
      <stop offset="48%" stop-color="#06384a"/>
      <stop offset="100%" stop-color="#042630"/>
    </linearGradient>
    <radialGradient id="halo" cx="70%" cy="30%" r="55%">
      <stop offset="0%" stop-color="#67e8f9" stop-opacity="0.20"/>
      <stop offset="55%" stop-color="#67e8f9" stop-opacity="0.05"/>
      <stop offset="100%" stop-color="#67e8f9" stop-opacity="0"/>
    </radialGradient>
    <linearGradient id="shade" x1="0" y1="0" x2="1" y2="1">
      <stop offset="0%" stop-color="#000" stop-opacity="0.55"/>
      <stop offset="45%" stop-color="#000" stop-opacity="0.12"/>
      <stop offset="100%" stop-color="#000" stop-opacity="0.40"/>
    </linearGradient>
    <radialGradient id="vig" cx="50%" cy="48%" r="72%">
      <stop offset="45%" stop-color="#000" stop-opacity="0"/>
      <stop offset="100%" stop-color="#000" stop-opacity="0.60"/>
    </radialGradient>
    <filter id="soft" x="-25%" y="-25%" width="150%" height="150%">
      <feGaussianBlur stdDeviation="6"/>
    </filter>
    <filter id="softer" x="-30%" y="-30%" width="160%" height="160%">
      <feGaussianBlur stdDeviation="20"/>
    </filter>
    <filter id="grain" x="0" y="0" width="100%" height="100%">
      <feTurbulence type="fractalNoise" baseFrequency="0.85" numOctaves="3" seed="11"/>
      <feColorMatrix type="saturate" values="0"/>
    </filter>
  </defs>

  <rect width="1416" height="742" fill="#01151a"/>
  <rect width="1416" height="742" fill="url(#bg)"/>
  <rect width="1416" height="742" fill="url(#halo)"/>

  <g fill="#67e8f9">
      <rect x="980" y="188" width="64" height="6" rx="1.5" opacity="0.18"/>
      <rect x="1056" y="188" width="67" height="6" rx="1.5" opacity="0.15"/>
      <rect x="1135" y="188" width="32" height="6" rx="1.5" opacity="0.14"/>
      <rect x="1192" y="188" width="79" height="6" rx="1.5" opacity="0.12"/>
      <rect x="1287" y="188" width="84" height="6" rx="1.5" opacity="0.15"/>
      <rect x="952" y="222" width="97" height="6" rx="1.5" opacity="0.11"/>
      <rect x="966" y="239" width="69" height="6" rx="1.5" opacity="0.16"/>
      <rect x="1052" y="239" width="120" height="6" rx="1.5" opacity="0.20"/>
      <rect x="1195" y="239" width="50" height="6" rx="1.5" opacity="0.10"/>
      <rect x="980" y="256" width="29" height="6" rx="1.5" opacity="0.11"/>
      <rect x="952" y="273" width="39" height="6" rx="1.5" opacity="0.19"/>
      <rect x="1008" y="273" width="59" height="6" rx="1.5" opacity="0.08"/>
      <rect x="1087" y="273" width="46" height="6" rx="1.5" opacity="0.08"/>
      <rect x="1147" y="273" width="95" height="6" rx="1.5" opacity="0.09"/>
      <rect x="952" y="307" width="88" height="6" rx="1.5" opacity="0.09"/>
      <rect x="1057" y="307" width="96" height="6" rx="1.5" opacity="0.12"/>
      <rect x="1169" y="307" width="119" height="6" rx="1.5" opacity="0.07"/>
      <rect x="1312" y="307" width="78" height="6" rx="1.5" opacity="0.20"/>
      <rect x="952" y="324" width="22" height="6" rx="1.5" opacity="0.09"/>
      <rect x="966" y="341" width="57" height="6" rx="1.5" opacity="0.08"/>
      <rect x="1036" y="341" width="20" height="6" rx="1.5" opacity="0.12"/>
      <rect x="952" y="358" width="106" height="6" rx="1.5" opacity="0.09"/>
      <rect x="1070" y="358" width="101" height="6" rx="1.5" opacity="0.10"/>
      <rect x="1184" y="358" width="114" height="6" rx="1.5" opacity="0.10"/>
      <rect x="1323" y="358" width="80" height="6" rx="1.5" opacity="0.12"/>
      <rect x="952" y="375" width="93" height="6" rx="1.5" opacity="0.12"/>
      <rect x="1062" y="375" width="68" height="6" rx="1.5" opacity="0.14"/>
      <rect x="1154" y="375" width="31" height="6" rx="1.5" opacity="0.13"/>
      <rect x="1205" y="375" width="26" height="6" rx="1.5" opacity="0.10"/>
      <rect x="1256" y="375" width="25" height="6" rx="1.5" opacity="0.12"/>
      <rect x="952" y="392" width="27" height="6" rx="1.5" opacity="0.09"/>
      <rect x="996" y="392" width="93" height="6" rx="1.5" opacity="0.14"/>
      <rect x="1114" y="392" width="112" height="6" rx="1.5" opacity="0.13"/>
      <rect x="1241" y="392" width="21" height="6" rx="1.5" opacity="0.15"/>
  </g>
  <g fill="#67e8f9">
      <rect x="964" y="496" width="52" height="6" rx="1.5" opacity="0.07"/>
      <rect x="1033" y="496" width="67" height="6" rx="1.5" opacity="0.09"/>
      <rect x="1114" y="496" width="89" height="6" rx="1.5" opacity="0.08"/>
      <rect x="1223" y="496" width="106" height="6" rx="1.5" opacity="0.13"/>
      <rect x="1342" y="496" width="93" height="6" rx="1.5" opacity="0.10"/>
      <rect x="964" y="513" width="40" height="6" rx="1.5" opacity="0.08"/>
      <rect x="1013" y="513" width="40" height="6" rx="1.5" opacity="0.12"/>
      <rect x="1072" y="513" width="72" height="6" rx="1.5" opacity="0.12"/>
      <rect x="1163" y="513" width="30" height="6" rx="1.5" opacity="0.09"/>
      <rect x="936" y="530" width="37" height="6" rx="1.5" opacity="0.11"/>
      <rect x="936" y="547" width="111" height="6" rx="1.5" opacity="0.07"/>
      <rect x="1060" y="547" width="99" height="6" rx="1.5" opacity="0.12"/>
      <rect x="1179" y="547" width="68" height="6" rx="1.5" opacity="0.09"/>
      <rect x="1265" y="547" width="27" height="6" rx="1.5" opacity="0.08"/>
      <rect x="1317" y="547" width="58" height="6" rx="1.5" opacity="0.10"/>
      <rect x="1393" y="547" width="19" height="6" rx="1.5" opacity="0.14"/>
      <rect x="964" y="581" width="36" height="6" rx="1.5" opacity="0.09"/>
      <rect x="1014" y="581" width="90" height="6" rx="1.5" opacity="0.06"/>
      <rect x="1118" y="581" width="49" height="6" rx="1.5" opacity="0.06"/>
      <rect x="1193" y="581" width="20" height="6" rx="1.5" opacity="0.10"/>
      <rect x="964" y="598" width="19" height="6" rx="1.5" opacity="0.10"/>
      <rect x="1006" y="598" width="19" height="6" rx="1.5" opacity="0.10"/>
      <rect x="1038" y="598" width="67" height="6" rx="1.5" opacity="0.10"/>
      <rect x="1129" y="598" width="104" height="6" rx="1.5" opacity="0.12"/>
      <rect x="1245" y="598" width="36" height="6" rx="1.5" opacity="0.08"/>
      <rect x="1301" y="598" width="98" height="6" rx="1.5" opacity="0.06"/>
      <rect x="936" y="615" width="113" height="6" rx="1.5" opacity="0.07"/>
      <rect x="1059" y="615" width="89" height="6" rx="1.5" opacity="0.12"/>
      <rect x="1160" y="615" width="78" height="6" rx="1.5" opacity="0.05"/>
      <rect x="1252" y="615" width="114" height="6" rx="1.5" opacity="0.11"/>
      <rect x="1381" y="615" width="70" height="6" rx="1.5" opacity="0.12"/>
      <rect x="936" y="632" width="76" height="6" rx="1.5" opacity="0.09"/>
      <rect x="1022" y="632" width="56" height="6" rx="1.5" opacity="0.11"/>
      <rect x="950" y="649" width="103" height="6" rx="1.5" opacity="0.07"/>
      <rect x="1076" y="649" width="72" height="6" rx="1.5" opacity="0.06"/>
      <rect x="1169" y="649" width="108" height="6" rx="1.5" opacity="0.14"/>
      <rect x="1290" y="649" width="28" height="6" rx="1.5" opacity="0.08"/>
      <rect x="1335" y="649" width="72" height="6" rx="1.5" opacity="0.13"/>
  </g>

  <g fill="none" stroke="#67e8f9" filter="url(#soft)">
    <path d="M -60 726 C 380 664 706 472 1086 148 C 1216 36 1334 -22 1476 -62" stroke-width="2.4" opacity="0.50"/>
    <path d="M -60 796 C 340 734 664 562 1014 248 C 1164 116 1304 38 1476 8" stroke-width="1.8" opacity="0.30"/>
    <path d="M 250 806 C 520 704 762 562 1014 338 C 1184 190 1322 108 1476 68" stroke-width="1.2" opacity="0.18"/>
    <path d="M 690 800 C 840 690 960 560 1080 420 C 1200 280 1320 190 1476 140" stroke-width="1" opacity="0.13"/>
  </g>
  <path d="M -60 706 C 400 644 726 442 1106 108 C 1236 -2 1344 -42 1476 -82"
        fill="none" stroke="#67e8f9" stroke-width="30" opacity="0.10" filter="url(#softer)"/>

  <rect width="1416" height="742" fill="url(#shade)"/>
  <rect width="1416" height="742" fill="url(#vig)"/>
  <rect width="1416" height="742" filter="url(#grain)" opacity="0.055"/>

  <text x="50%" y="50%" text-anchor="middle" dominant-baseline="central"
        font-family="Helvetica Neue, Helvetica, Arial, sans-serif"
        font-size="170" font-weight="400" letter-spacing="-3" fill="#ffffff">Corpus</text>
</svg>
